# xmcd
#
# Track frame offsets:
# 150
# 17962
# 35511
# 47040
# 58852
# 77834
# 92327
# 105368
# 118542
# 133832
# 147088
# 160875
# 170040
# 197105
#
# Disc length: 3959 seconds
#
#
# Revision: 1
# Processed by: cddbd v1.5PL3 Copyright (c) Steve Scherf et al.
# Submitted via: FreeRIP 2.70 
#
DISCID=bd0f750e
DTITLE=Bill Wharton And The Ingredients - Receipes
DYEAR=1999
DGENRE=blues
TTITLE0=She's A Monkey
TTITLE1=Ten Foot Pole
TTITLE2=Little Brother
TTITLE3=All 'Round Man
TTITLE4=Unplug The Blues
TTITLE5=Your Maytag Done Broke Down
TTITLE6=She's Mine
TTITLE7=Big Bang Theory
TTITLE8=Take This Hammer
TTITLE9=Hangin' With The Band
TTITLE10=Smackers
TTITLE11=The Cyber Blues
TTITLE12=It's Always Twilight Time
TTITLE13=Data-Track
EXTD=
EXTT0=
EXTT1=
EXTT2=
EXTT3=
EXTT4=
EXTT5=
EXTT6=
EXTT7=
EXTT8=
EXTT9=
EXTT10=
EXTT11=
EXTT12=
EXTT13=
PLAYORDER=
